<svg id="_044-instagram" data-name="044-instagram" xmlns="http://www.w3.org/2000/svg" width="24.005" height="24.005" viewBox="0 0 24.005 24.005">
  <path id="Path_3" data-name="Path 3" d="M12.005,5.838A6.159,6.159,0,1,0,18.165,12a6.159,6.159,0,0,0-6.159-6.159Zm0,10.157a4,4,0,1,1,4-4A4,4,0,0,1,12.005,16Z" transform="translate(0.001 0.001)"/>
  <path id="Path_4" data-name="Path 4" d="M16.952.076c-2.208-.1-7.679-.1-9.889,0A7.173,7.173,0,0,0,2.025,2.017C-.283,4.326.012,7.437.012,12c0,4.669-.26,7.708,2.013,9.981C4.343,24.3,7.5,23.993,12.006,23.993c4.625,0,6.221,0,7.857-.63,2.223-.863,3.9-2.851,4.066-6.42.1-2.209.1-7.679,0-9.889-.2-4.214-2.46-6.769-6.977-6.977Zm3.5,20.376c-1.513,1.513-3.613,1.378-8.47,1.378-5,0-7.006.074-8.47-1.393-1.685-1.677-1.38-4.371-1.38-8.455,0-5.526-.567-9.506,4.979-9.79,1.274-.045,1.649-.06,4.857-.06l.045.03c5.33,0,9.512-.558,9.763,4.987.057,1.265.07,1.645.07,4.848,0,4.943.093,6.96-1.394,8.455Z" transform="translate(0 -0.001)"/>
  <circle id="Ellipse_1" data-name="Ellipse 1" cx="1.439" cy="1.439" r="1.439" transform="translate(16.971 4.156)"/>
</svg>
