<svg id="_044-instagram" data-name="044-instagram" xmlns="http://www.w3.org/2000/svg" width="31.79" height="31.79" viewBox="0 0 31.79 31.79">
  <path id="Path_3" data-name="Path 3" d="M14,5.838a8.157,8.157,0,1,0,8.157,8.157A8.156,8.156,0,0,0,14,5.838Zm0,13.451A5.294,5.294,0,1,1,19.3,13.995,5.293,5.293,0,0,1,14,19.289Z" transform="translate(1.898 1.894)" fill="#fff"/>
  <path id="Path_4" data-name="Path 4" d="M22.449.1c-2.925-.136-10.169-.13-13.1,0A9.5,9.5,0,0,0,2.682,2.671C-.375,5.729.016,9.848.016,15.889c0,6.183-.344,10.207,2.666,13.218C5.751,32.175,9.93,31.774,15.9,31.774c6.125,0,8.239,0,10.4-.834,2.945-1.143,5.167-3.775,5.384-8.5.138-2.926.13-10.169,0-13.1C31.427,3.76,28.432.376,22.449.1Zm4.629,26.984c-2,2-4.784,1.825-11.217,1.825-6.623,0-9.279.1-11.217-1.845-2.232-2.221-1.828-5.788-1.828-11.2C2.817,8.55,2.066,3.279,9.411,2.9c1.688-.06,2.184-.079,6.432-.079l.06.04c7.059,0,12.6-.739,12.929,6.6.076,1.676.093,2.179.093,6.42,0,6.546.123,9.218-1.846,11.2Z" transform="translate(0 -0.001)" fill="#fff"/>
  <circle id="Ellipse_1" data-name="Ellipse 1" cx="1.906" cy="1.906" r="1.906" transform="translate(22.474 5.504)" fill="#fff"/>
</svg>
