<svg xmlns="http://www.w3.org/2000/svg" width="36.56" height="29.705" viewBox="0 0 36.56 29.705">
  <path id="_096-twitter" data-name="096-twitter" d="M32.8,9.658A14.962,14.962,0,0,0,36.56,5.767v0A15.653,15.653,0,0,1,32.242,6.95a7.455,7.455,0,0,0,3.3-4.142,15,15,0,0,1-4.753,1.814A7.495,7.495,0,0,0,17.822,9.746,7.718,7.718,0,0,0,18,11.456,21.22,21.22,0,0,1,2.546,3.615a7.495,7.495,0,0,0,2.3,10.018,7.409,7.409,0,0,1-3.386-.923v.082a7.53,7.53,0,0,0,6.005,7.365A7.453,7.453,0,0,1,5.5,20.4a6.616,6.616,0,0,1-1.418-.128,7.569,7.569,0,0,0,7,5.222,15.066,15.066,0,0,1-9.294,3.2A14.176,14.176,0,0,1,0,28.592a21.107,21.107,0,0,0,11.5,3.364A21.187,21.187,0,0,0,32.8,9.658Z" transform="translate(0 -2.25)" fill="#fff"/>
</svg>
