<svg xmlns="http://www.w3.org/2000/svg" width="27.607" height="22.431" viewBox="0 0 27.607 22.431">
  <path id="_096-twitter" data-name="096-twitter" d="M24.771,7.844a11.3,11.3,0,0,0,2.837-2.938h0a11.82,11.82,0,0,1-3.261.894,5.63,5.63,0,0,0,2.49-3.128,11.324,11.324,0,0,1-3.589,1.37,5.659,5.659,0,0,0-9.79,3.87A5.828,5.828,0,0,0,13.589,9.2,16.024,16.024,0,0,1,1.922,3.281a5.66,5.66,0,0,0,1.739,7.564,5.594,5.594,0,0,1-2.557-.7v.062a5.686,5.686,0,0,0,4.535,5.562,5.628,5.628,0,0,1-1.484.186,5,5,0,0,1-1.071-.1A5.716,5.716,0,0,0,8.372,19.8a11.377,11.377,0,0,1-7.018,2.413A10.7,10.7,0,0,1,0,22.141a15.939,15.939,0,0,0,8.683,2.54A16,16,0,0,0,24.771,7.844Z" transform="translate(0 -2.25)"/>
</svg>
